<?xml version="1.0" encoding="UTF-8" standalone="no"?>
<!-- Created with Inkscape (http://www.inkscape.org/) -->

<svg
   width="512"
   height="512"
   viewBox="0 0 135.46666 135.46667"
   version="1.1"
   id="svg5"
   inkscape:version="1.2.2 (732a01da63, 2022-12-09)"
   sodipodi:docname="comicseeder.svg"
   xmlns:inkscape="http://www.inkscape.org/namespaces/inkscape"
   xmlns:sodipodi="http://sodipodi.sourceforge.net/DTD/sodipodi-0.dtd"
   xmlns="http://www.w3.org/2000/svg"
   xmlns:svg="http://www.w3.org/2000/svg">
  <sodipodi:namedview
     id="namedview7"
     pagecolor="#ffffff"
     bordercolor="#000000"
     borderopacity="0.25"
     inkscape:showpageshadow="2"
     inkscape:pageopacity="0.0"
     inkscape:pagecheckerboard="0"
     inkscape:deskcolor="#d1d1d1"
     inkscape:document-units="mm"
     showgrid="false"
     inkscape:lockguides="true"
     inkscape:zoom="0.5"
     inkscape:cx="257"
     inkscape:cy="257"
     inkscape:window-width="1920"
     inkscape:window-height="991"
     inkscape:window-x="-9"
     inkscape:window-y="-9"
     inkscape:window-maximized="1"
     inkscape:current-layer="layer1" />
  <defs
     id="defs2" />
  <g
     inkscape:label="Layer 1"
     inkscape:groupmode="layer"
     id="layer1">
    <rect
       style="fill:#ffffff;fill-opacity:1;stroke:none;stroke-width:5.08637;stroke-linecap:square;stroke-linejoin:miter;stroke-dasharray:none;stroke-opacity:1;paint-order:stroke markers fill;stop-color:#000000"
       id="rect17178"
       width="135.46666"
       height="135.46666"
       x="2.220446e-16"
       y="0" />
    <path
       style="fill:#233b24;fill-opacity:1;stroke:none;stroke-width:2.14787;stroke-linecap:round;stroke-linejoin:round;paint-order:stroke markers fill;stop-color:#000000"
       d="m 54.528587,117.64932 c 0,0 8.9444,-21.605677 16.125351,-20.739317 l 39.648772,-63.37168 9.89542,7.04673 L 78.225714,100.37159 75.49754,99.445623 C 76.481598,114.82172 63.149589,110.0397 56.927474,120.68477 L 21.122566,120.8347 15.875,15.875 h 104.80977 l -10.7387,3.221611 h 8.59096 l -10.7387,3.221612 h 8.59096 l -10.73871,3.221612 h 8.59097 l -10.73871,3.221612 -75.640975,-1.199444 2.398887,85.034097 z"
       id="path283"
       sodipodi:nodetypes="cccccccccccccccccccc" />
    <path
       id="path9036"
       style="color:#000000;fill:#233b24;fill-opacity:1;stroke-width:0.811745;stroke-linecap:square;-inkscape-stroke:none;paint-order:stroke markers fill"
       d="m 66.812542,32.352621 c -0.279813,4.87e-4 -0.559235,0.0059 -0.838542,0.01636 -8.93783,0.334408 -17.411641,5.311831 -22.836949,12.742146 -4.118305,5.640286 -6.513811,12.828734 -5.636143,20.356979 0.776588,6.661215 4.367681,13.405004 10.947608,19.318764 -4.702897,5.391373 -7.421287,9.908393 -8.8372,13.241333 -2.104191,4.390027 -2.855587,9.896377 -2.855587,9.896377 6.976523,-0.24053 9.774756,-0.25576 16.751267,-0.49661 l 3.601321,-6.28826 c -4.453072,0.15313 -7.331866,-0.0683 -11.784932,0.0849 0.104189,-0.27682 0.08658,-0.36543 0.218969,-0.67704 1.291025,-3.038957 4.008412,-7.730557 9.745795,-13.791687 l 2.460674,-2.600361 -2.844498,-2.175007 C 47.64022,76.429948 44.565754,70.434825 43.899667,64.721431 43.8501,64.29627 43.816384,63.871791 43.793958,63.448307 h 22.665801 c -0.290746,7.758307 -2.309871,15.252083 -5.173875,22.411595 l 7.857604,-3.829396 c 3.171265,-8.929793 3.376432,-11.140361 3.768304,-18.582199 l 11.836497,-0.05301 4.187666,-6.390215 H 72.818248 c -0.526653,-7.40455 -2.355993,-14.490179 -3.398214,-18.051092 9.192853,3.02087 11.482496,5.602341 15.32658,11.937174 l 6.695738,-0.429141 -1.512647,-2.844499 C 84.348215,37.124325 75.486757,32.337536 66.812542,32.352621 Z m -4.041277,6.905072 c 0.684546,2.231792 2.935312,10.008259 3.578171,17.74739 H 44.466385 c 0.759469,-2.914789 2.101317,-5.665212 3.874324,-8.093461 3.582443,-4.906391 8.926488,-8.440016 14.430556,-9.653929 z"
       sodipodi:nodetypes="ssssccccccccccsccccccccccccscccsc" />
  </g>
</svg>
