<svg xmlns="http://www.w3.org/2000/svg" width="512" height="512" viewBox="0 0 135.467 135.467"><path d="M50.793 128.552s11.019-26.616 19.865-25.549l48.844-78.068 12.19 8.68-51.706 73.653-3.361-1.141c1.212 18.942-15.212 13.05-22.877 26.165l-44.108.184L3.175 3.175h129.117l-13.23 3.969h10.584l-13.23 3.969H127l-13.23 3.968h10.584l-13.229 3.969-93.183-1.478 2.955 104.755Z" style="fill:#233b24;fill-opacity:1;stroke:none;stroke-width:2.64599;stroke-linecap:round;stroke-linejoin:round;paint-order:stroke markers fill;stop-color:#000"/><path d="M65.926 23.474c-.345 0-.69.007-1.033.02-11.011.412-21.45 6.544-28.133 15.697-5.074 6.949-8.025 15.804-6.944 25.078.957 8.207 5.38 16.514 13.487 23.8-5.794 6.641-9.143 12.206-10.887 16.312-2.592 5.408-3.518 12.191-3.518 12.191 8.595-.296 12.042-.315 20.636-.612l4.437-7.746c-5.486.188-9.032-.084-14.518.104.128-.34.107-.45.27-.834 1.59-3.743 4.938-9.523 12.006-16.99l3.031-3.203-3.504-2.68C42.307 77.774 38.52 70.388 37.699 63.35a24.911 24.911 0 0 1-.13-1.569H65.49c-.358 9.558-2.845 18.79-6.374 27.61l9.68-4.718c3.907-11 4.16-13.724 4.642-22.892l14.582-.065 5.159-7.872H73.324c-.649-9.122-2.902-17.85-4.186-22.238 11.325 3.722 14.145 6.902 18.88 14.706l8.25-.529-1.864-3.504c-6.876-12.927-17.792-18.824-28.478-18.805Zm-4.979 8.506c.843 2.75 3.616 12.33 4.408 21.864H38.397c.936-3.591 2.589-6.98 4.773-9.97 4.413-6.045 10.997-10.398 17.777-11.894z" style="color:#000;fill:#233b24;stroke-linecap:square;-inkscape-stroke:none;paint-order:stroke markers fill;fill-opacity:1"/></svg>